<?xml version="1.0" encoding="utf-8" ?>
<svg baseProfile="tiny" height="100%" version="1.2" width="100%" xmlns="http://www.w3.org/2000/svg" xmlns:ev="http://www.w3.org/2001/xml-events" xmlns:xlink="http://www.w3.org/1999/xlink"><defs /><path d="M 122.75056359297692,119.03691993217765 C 122.52453140841408,121.00479710629921 122.87824977175705,117.06022386028512 122.75056359297692,119.03691993217764" fill="none" stroke="black" /><path d="M 177.82060460982794,71.13081823767632 C 178.60368010454812,73.08673809827067 176.88643446378518,69.24239141363965 177.82060460982794,71.13081823767631" fill="none" stroke="black" /><path d="M 178.36796271430794,148.43821224559014 C 177.31076144374023,150.6653541818836 179.27470882774332,146.14569240561997 178.36796271430794,148.4382122455901" fill="none" stroke="black" /><path d="M -152412.14844270534,-2688.5555865759907 C -157246.4275283413,-2836.636339722828 -147577.7591556243,-2544.1173360118164 -152412.1484427053,-2688.5555865759898" fill="none" stroke="black" /><path d="M -89861.78868513073,366.7716088390116 C -92715.49578776785,293.43976821221787 -87007.95727542139,435.0948951174828 -89861.7886851307,366.7716088390122" fill="none" stroke="black" /><path d="M 583933.272626823,71440.56956387192 C 583630.9441387225,71473.97378291859 583647.8797055271,71335.35912217762 583933.272626823,71440.56956387192" fill="none" stroke="black" /><path d="M 274.6179397771826,846.2207036977724 C 279.58366452075836,878.0558620348265 269.470991018672,814.4143419590959 274.6179397771825,846.2207036977721" fill="none" stroke="black" /><path d="M 32379.07608997931,-17907.580885392614 C 32377.426657167056,-17872.21110227563 32348.09641722726,-17924.72737373632 32379.07608997931,-17907.580885392614" fill="none" stroke="black" /><path d="M -140.19466481035334,1922.337306925786 C -158.1674451972475,1982.8316873080248 -122.7076731661972,1861.7007171807832 -140.1946648103532,1922.3373069257855" fill="none" stroke="black" /><path d="M 1.562000036239624,1.8760000467300415 C 2.0648434162139893,1.8765397667884827 216.27515411376953,2.1064603328704834 216.7779998779297,2.1070001125335693" fill="none" stroke="black" /></svg>